<svg width="25" height="25" viewBox="0 0 25 25" fill="none" xmlns="http://www.w3.org/2000/svg">
<path d="M14.3881 2.49023H6.38812C5.85769 2.49023 5.34898 2.70095 4.97391 3.07602C4.59884 3.45109 4.38812 3.9598 4.38812 4.49023V20.4902C4.38812 21.0207 4.59884 21.5294 4.97391 21.9044C5.34898 22.2795 5.85769 22.4902 6.38812 22.4902H18.3881C18.9186 22.4902 19.4273 22.2795 19.8023 21.9044C20.1774 21.5294 20.3881 21.0207 20.3881 20.4902V8.49023L14.3881 2.49023Z" stroke="#4F547B" stroke-width="1.5" stroke-linecap="round" stroke-linejoin="round"/>
<path d="M14.3881 2.49023V8.49023H20.3881" stroke="#4F547B" stroke-width="1.5" stroke-linecap="round" stroke-linejoin="round"/>
<path d="M16.3881 13.4902H8.38812" stroke="#4F547B" stroke-width="1.5" stroke-linecap="round" stroke-linejoin="round"/>
<path d="M16.3881 17.4902H8.38812" stroke="#4F547B" stroke-width="1.5" stroke-linecap="round" stroke-linejoin="round"/>
<path d="M10.3881 9.49023H9.38812H8.38812" stroke="#4F547B" stroke-width="1.5" stroke-linecap="round" stroke-linejoin="round"/>
</svg>
