<svg width="4" height="18" viewBox="0 0 4 18" fill="none" xmlns="http://www.w3.org/2000/svg">
<path d="M2 6.75C0.896 6.75 0 7.646 0 8.75C0 9.854 0.896 10.75 2 10.75C3.104 10.75 4 9.854 4 8.75C4 7.646 3.104 6.75 2 6.75Z" fill="#231F20"/>
<path d="M2 4C3.104 4 4 3.104 4 2C4 0.896 3.104 0 2 0C0.896 0 0 0.896 0 2C0 3.104 0.896 4 2 4Z" fill="#231F20"/>
<path d="M2 13.5C0.896 13.5 0 14.396 0 15.5C0 16.604 0.896 17.5 2 17.5C3.104 17.5 4 16.604 4 15.5C4 14.396 3.104 13.5 2 13.5Z" fill="#231F20"/>
</svg>
